<?xml version="1.0" encoding="UTF-8"?>
<svg width="700pt" height="700pt" version="1.1" viewBox="0 0 700 700" xmlns="http://www.w3.org/2000/svg" fill="#ffffff">
 <g fill-rule="evenodd">
  <path d="m126 0h336c37.113 0 67.199 37.113 67.199 67.199v324.8c0 37.113-30.086 67.199-67.199 67.199h-336c-37.113 0-67.199-37.113-67.199-67.199v-324.8c0-37.113 30.086-67.199 67.199-67.199z"/>
  <path d="m574 112.67c16.352 1.1211 24.641 3.8086 32.93 8.2891 10.754 5.8242 19.488 14.559 25.312 25.312 5.8242 11.199 8.9609 21.953 8.9609 51.969v275.52c0 30.016-3.1367 40.992-8.9609 51.969l-0.003907-0.003907c-5.7969 10.719-14.594 19.516-25.309 25.312-11.199 5.8242-21.953 8.9609-51.969 8.9609h-297.92c-30.016 0-40.992-3.1367-51.969-8.9609-10.773-5.7227-19.586-14.539-25.309-25.312-4.4805-8.2891-7.168-16.574-8.2891-32.93h287.62c40.098 0 54.434-4.2578 68.992-11.871l-0.003906 0.003907c14.527-7.6523 26.398-19.523 34.051-34.051 7.6172-14.559 11.871-29.121 11.871-68.992z"/>
 </g>
</svg>
